<svg width="32" height="32" viewBox="0 0 32 32" fill="none" xmlns="http://www.w3.org/2000/svg">
  <!-- Background -->
  <rect width="32" height="32" rx="6" fill="url(#gradient)"/>
  
  <!-- Simplified graduation cap -->
  <g transform="translate(16, 16)">
    <!-- Cap base -->
    <ellipse cx="0" cy="-2" rx="9" ry="1.5" fill="#ffffff" opacity="0.9"/>
    
    <!-- Cap top -->
    <path d="M-8 -3 L8 -3 Q9 -3 9 -4 L9 -5 Q9 -6 8 -6 L-8 -6 Q-9 -6 -9 -5 L-9 -4 Q-9 -3 -8 -3 Z" fill="#ffffff"/>
    
    <!-- Tassel -->
    <line x1="7" y1="-4.5" x2="9" y2="-6" stroke="#10B981" stroke-width="0.5"/>
    <circle cx="9" cy="-6" r="0.5" fill="#10B981"/>
    
    <!-- Book -->
    <rect x="-4" y="1" width="8" height="6" rx="0.5" fill="#ffffff" opacity="0.8"/>
    <rect x="-3.5" y="1.5" width="7" height="5" rx="0.3" fill="#2563EB" opacity="0.3"/>
    
    <!-- Bitcoin symbol -->
    <text x="0" y="11" text-anchor="middle" font-family="serif" font-size="5" font-weight="bold" fill="#10B981">₿</text>
  </g>
  
  <!-- Gradient definition -->
  <defs>
    <linearGradient id="gradient" x1="0%" y1="0%" x2="100%" y2="100%">
      <stop offset="0%" style="stop-color:#2563EB;stop-opacity:1" />
      <stop offset="100%" style="stop-color:#1D4ED8;stop-opacity:1" />
    </linearGradient>
  </defs>
</svg>